<svg id="그룹_34874" data-name="그룹 34874" xmlns="http://www.w3.org/2000/svg" xmlns:xlink="http://www.w3.org/1999/xlink" width="30" height="30" viewBox="0 0 30 30">
  <defs>
    <style>
      .cls-1 {
        fill: none;
      }

      .cls-2 {
        clip-path: url(#clip-path);
      }

      .cls-3 {
        fill: #905bfd;
      }
    </style>
    <clipPath id="clip-path">
      <rect id="사각형_6418" data-name="사각형 6418" class="cls-1" width="30" height="30"/>
    </clipPath>
  </defs>
  <rect id="사각형_6417" data-name="사각형 6417" class="cls-1" width="30" height="30"/>
  <g id="그룹_34875" data-name="그룹 34875">
    <g id="그룹_34874-2" data-name="그룹 34874" class="cls-2">
      <path id="패스_6059" data-name="패스 6059" class="cls-3" d="M24.1,9.462,16.653,3.873a2.748,2.748,0,0,0-3.3,0L5.9,9.462a2.352,2.352,0,0,0-.942,1.882V22.962a2.27,2.27,0,0,0,2.27,2.27H22.77a2.27,2.27,0,0,0,2.27-2.27V11.344A2.351,2.351,0,0,0,24.1,9.462m-3.521,3.522L14.26,19.307a.834.834,0,0,1-1.181,0L9.861,16.09a.835.835,0,0,1,1.181-1.182l2.627,2.627L19.4,11.8a.835.835,0,1,1,1.181,1.181"/>
    </g>
  </g>
</svg>
